<?xml version="1.0" encoding="UTF-8"?>
<!DOCTYPE svg PUBLIC "-//W3C//DTD SVG 1.1//EN" "http://www.w3.org/Graphics/SVG/1.1/DTD/svg11.dtd">
<!-- Creator: CorelDRAW -->
<svg xmlns="http://www.w3.org/2000/svg" xml:space="preserve" width="3.39393in" height="0.641134in" version="1.1" style="shape-rendering:geometricPrecision; text-rendering:geometricPrecision; image-rendering:optimizeQuality; fill-rule:evenodd; clip-rule:evenodd"
viewBox="0 0 1325.64 250.42"
 xmlns:xlink="http://www.w3.org/1999/xlink"
 xmlns:xodm="http://www.corel.com/coreldraw/odm/2003">
 <defs>
  <style type="text/css">
   <![CDATA[
    .fil0 {fill:#FEFEFE}
    .fil1 {fill:#00C3F8}
    .fil3 {fill:#FEFEFE;fill-rule:nonzero}
    .fil2 {fill:#00C3F8;fill-rule:nonzero}
   ]]>
  </style>
 </defs>
 <g id="Layer_x0020_1">
  <metadata id="CorelCorpID_0Corel-Layer"/>
  <path class="fil0" d="M125.21 0c69.15,0 125.2,57.64 125.2,125.21 0,67.56 -50.85,120.4 -115.6,125.21l-0.16 0 -106.12 0 103.2 -60.22 11.9 20.61c11.83,-7.17 17.98,-16.61 8.37,-32.35l30.76 -17.76c39.61,-19.57 22.83,-55.72 22.83,-55.72 0,0 -8.51,-21.12 -25.69,-44.5 -17.18,-23.38 -51.37,-8.51 -51.37,-8.51l-37.88 21.87c-10.02,-19.09 -32.48,-7.35 -32.48,-7.35l11.96 20.71 -69.2 39.13 -0.93 0.45c-0.01,-0.53 -0.02,-1.05 -0.02,-1.58 0,-69.15 56.06,-125.21 125.21,-125.21z"/>
  <path class="fil1" d="M2.68 148.51l17.66 -2.56c9.25,22.89 21.79,42.82 36.55,60.76l-10.24 12.88c-21.41,-19.64 -36.31,-43.18 -43.97,-71.08z"/>
  <path class="fil1" d="M82.74 107.72l18.78 -24.35c27.44,12.64 49.69,48.62 47.46,79.44l-29.92 6.81c-6.36,-17.94 -21.63,-49.62 -36.91,-60.43l0.59 -1.47z"/>
  <path class="fil2" d="M414.83 156.88l38.9 0c-5.86,16.04 -14.96,28.46 -27.3,37.26 -12.33,8.8 -26.95,13.2 -43.86,13.2 -21.22,0 -39.29,-7.29 -54.21,-21.87 -14.92,-14.58 -22.38,-32.3 -22.38,-53.18 0,-21.22 7.29,-39.03 21.87,-53.43 14.58,-14.4 32.47,-21.61 53.69,-21.61 17.08,0 32,4.49 44.77,13.46 12.76,8.97 21.91,21.56 27.43,37.78l-38.9 0c-6.73,-13.11 -17.9,-19.66 -33.47,-19.66 -12.08,0 -21.95,3.97 -29.54,11.9 -7.63,7.94 -11.43,18.37 -11.43,31.31 0,12.59 3.97,23.03 11.95,31.31 7.94,8.28 17.9,12.42 29.8,12.42 13.67,0 24.58,-6.3 32.69,-18.89z"/>
  <path class="fil2" d="M619.65 60.62l0 143.35 -31.57 0 0 -18.63c-6.73,7.76 -13.8,13.37 -21.22,16.82 -7.42,3.45 -16.22,5.18 -26.39,5.18 -21.05,0 -38.34,-7.03 -51.88,-21.09 -13.54,-14.06 -20.31,-31.87 -20.31,-53.43 0,-21.91 6.86,-39.98 20.57,-54.21 13.71,-14.23 31.09,-21.35 52.14,-21.35 10.7,0 19.71,1.73 27.04,5.17 7.33,3.45 14.02,9.23 20.05,17.34l0 -19.15 31.57 0zm-74.91 28.21c-12.46,0 -22.6,4.14 -30.36,12.42 -7.81,8.28 -11.69,19.06 -11.69,32.35 0,12.59 3.88,22.77 11.69,30.53 7.76,7.76 18.07,11.65 30.88,11.65 12.64,0 22.77,-3.97 30.36,-11.9 7.63,-7.93 11.43,-18.29 11.43,-31.05 0,-12.77 -3.97,-23.29 -11.95,-31.57 -7.94,-8.28 -18.07,-12.42 -30.36,-12.42z"/>
  <path class="fil2" d="M653.13 203.98l0 -143.35 31.57 0 0 13.97c4.48,-6.56 8.97,-11.08 13.46,-13.58 4.48,-2.5 10.26,-3.75 17.34,-3.75l2.85 0 0 33.12c-20.53,0 -30.79,11.3 -30.79,33.9l0 79.7 -34.41 0z"/>
  <path class="fil3" d="M731.49 134.11c0.13,-11.3 2.33,-21.61 6.64,-31.01 4.27,-9.4 10.05,-17.38 17.25,-23.94 7.25,-6.6 15.35,-11.6 24.41,-15.09 9.01,-3.49 18.2,-5.26 27.52,-5.26 25.88,0.65 44.42,11 55.63,31.09l0 -27.47 18.63 0 0 141.54 -18.63 0 0 -26.91c-5.3,9.53 -12.98,16.91 -23.07,22.17 -10.05,5.22 -21.43,7.85 -34.16,7.85 -9.7,-0.26 -18.98,-2.11 -27.86,-5.61 -8.88,-3.45 -16.82,-8.41 -23.85,-14.79 -6.99,-6.43 -12.51,-14.1 -16.52,-23.07 -4.01,-8.97 -5.99,-18.8 -5.99,-29.5zm19.67 -4.4c0,11.6 2.54,21.91 7.68,30.84 5.13,8.97 11.86,15.83 20.23,20.66 8.41,4.79 17.29,7.29 26.65,7.5 10.82,0 20.61,-2.59 29.32,-7.81 8.71,-5.22 15.53,-12.03 20.48,-20.48 4.96,-8.41 7.42,-17.21 7.42,-26.31 0,-10 -2.41,-19.28 -7.2,-27.73 -4.79,-8.45 -11.39,-15.22 -19.8,-20.31 -8.41,-5.09 -17.59,-7.85 -27.64,-8.37 -10.91,0 -20.7,2.72 -29.5,8.15 -8.75,5.43 -15.53,12.25 -20.4,20.4 -4.83,8.19 -7.24,16 -7.24,23.46z"/>
  <polygon id="_1" class="fil3" points="935.19,203.98 935.19,79.77 905.44,79.77 905.44,62.43 935.19,62.43 935.19,12.49 954.34,12.49 954.34,62.43 987.16,62.43 987.16,79.77 954.34,79.77 954.34,203.98 "/>
  <polygon id="_2" class="fil3" points="1011.12,203.98 1011.12,12.49 1030.27,12.49 1030.27,203.98 "/>
  <path id="_3" class="fil3" d="M1061.38 134.11c0.13,-11.3 2.33,-21.61 6.64,-31.01 4.27,-9.4 10.05,-17.38 17.25,-23.94 7.25,-6.6 15.35,-11.6 24.41,-15.09 9.01,-3.49 18.2,-5.26 27.52,-5.26 25.88,0.65 44.42,11 55.63,31.09l0 -27.47 18.63 0 0 141.54 -18.63 0 0 -26.91c-5.3,9.53 -12.98,16.91 -23.07,22.17 -10.05,5.22 -21.43,7.85 -34.16,7.85 -9.7,-0.26 -18.98,-2.11 -27.86,-5.61 -8.88,-3.45 -16.82,-8.41 -23.85,-14.79 -6.99,-6.43 -12.51,-14.1 -16.52,-23.07 -4.01,-8.97 -5.99,-18.8 -5.99,-29.5zm19.67 -4.4c0,11.6 2.54,21.91 7.68,30.84 5.13,8.97 11.86,15.83 20.23,20.66 8.41,4.79 17.29,7.29 26.65,7.5 10.82,0 20.61,-2.59 29.32,-7.81 8.71,-5.22 15.53,-12.03 20.48,-20.48 4.96,-8.41 7.42,-17.21 7.42,-26.31 0,-10 -2.41,-19.28 -7.2,-27.73 -4.79,-8.45 -11.39,-15.22 -19.8,-20.31 -8.41,-5.09 -17.59,-7.85 -27.64,-8.37 -10.91,0 -20.7,2.72 -29.5,8.15 -8.75,5.43 -15.53,12.25 -20.4,20.4 -4.83,8.19 -7.24,16 -7.24,23.46z"/>
  <path id="_4" class="fil3" d="M1242.32 103.84c-0.17,-1.38 -0.26,-3.28 -0.26,-5.65 0,-8.24 2.03,-15.27 6.12,-21.17 4.1,-5.91 9.23,-10.31 15.4,-13.24 6.17,-2.98 12.16,-4.44 18.03,-4.44 4.74,0 9.49,0.82 14.23,2.42 4.7,1.59 9.01,3.97 12.9,7.12 3.88,3.15 7.07,7.16 9.49,11.99 2.41,4.87 3.75,10.35 4.01,16.52l-19.41 0c-0.35,-6.81 -2.5,-11.77 -6.51,-14.92 -4.01,-3.15 -8.93,-4.74 -14.66,-4.74 -5.09,0 -9.83,1.68 -14.23,5 -4.36,3.32 -6.68,8.19 -6.99,14.62 0.04,0.17 0.3,1.25 0.73,3.19 0.43,1.98 0.73,3.23 0.86,3.84 1.29,4.66 5.74,8.58 13.28,11.73 7.59,3.15 15.22,6.12 22.9,9.01 7.68,2.89 14.19,7.16 19.49,12.72 5.31,5.61 7.93,13.58 7.93,23.98 0,1.77 -0.17,4.36 -0.56,7.76 -1.08,8.71 -3.92,15.91 -8.63,21.52 -4.7,5.65 -10.22,9.75 -16.6,12.25 -6.34,2.5 -12.59,3.75 -18.76,3.75 -8.54,0 -16.17,-1.94 -22.9,-5.86 -6.77,-3.92 -11.99,-9.27 -15.7,-16.09 -3.75,-6.77 -5.61,-14.27 -5.61,-22.55l19.19 -0.56c0.26,8.11 2.98,14.71 8.24,19.75 5.22,5.09 11.21,7.72 17.9,7.98 6.73,-0.6 12.46,-3.19 17.16,-7.81 4.74,-4.61 7.12,-10.18 7.12,-16.78 0,-5.78 -1.9,-11.08 -5.69,-15.83 -3.84,-4.7 -9.66,-8.06 -17.6,-10.05 -10.78,-2.89 -20.01,-6.99 -27.64,-12.21 -7.63,-5.22 -12.07,-12.94 -13.24,-23.24z"/>
 </g>
</svg>
