<?xml version="1.0" encoding="UTF-8"?>
<!DOCTYPE svg PUBLIC "-//W3C//DTD SVG 1.1//EN" "http://www.w3.org/Graphics/SVG/1.1/DTD/svg11.dtd">
<!-- Creator: CorelDRAW -->
<svg xmlns="http://www.w3.org/2000/svg" xml:space="preserve" width="3.39393in" height="0.641134in" version="1.1" style="shape-rendering:geometricPrecision; text-rendering:geometricPrecision; image-rendering:optimizeQuality; fill-rule:evenodd; clip-rule:evenodd"
viewBox="0 0 6451.51 1218.73"
 xmlns:xlink="http://www.w3.org/1999/xlink"
 xmlns:xodm="http://www.corel.com/coreldraw/odm/2003">
 <defs>
  <style type="text/css">
   <![CDATA[
    .fil0 {fill:#00C3F8}
    .fil1 {fill:#00C3F8;fill-rule:nonzero}
    .fil2 {fill:#0A2E4E;fill-rule:nonzero}
   ]]>
  </style>
 </defs>
 <g id="Layer_x0020_1">
  <metadata id="CorelCorpID_0Corel-Layer"/>
  <g id="_2388783324192">
   <path class="fil0" d="M609.34 0c336.53,0 609.33,280.52 609.33,609.34 0,328.82 -247.47,585.93 -562.58,609.37l-0.79 0.01 -516.44 0 502.27 -293.09 57.92 100.31c57.59,-34.87 87.5,-80.83 40.75,-157.44l149.7 -86.43c192.78,-95.23 111.11,-271.17 111.11,-271.17 0,0 -41.43,-102.77 -125.05,-216.57 -83.61,-113.81 -249.98,-41.4 -249.98,-41.4l-184.34 106.44c-48.77,-92.9 -158.06,-35.76 -158.06,-35.76l58.19 100.78 -336.77 190.46 -4.51 2.19c-0.03,-2.57 -0.1,-5.13 -0.1,-7.7 0,-336.53 272.81,-609.34 609.34,-609.34z"/>
   <path class="fil0" d="M13.04 722.74l85.96 -12.47c45.04,111.39 106.05,208.4 177.86,295.69l-49.81 62.68c-104.22,-95.58 -176.73,-210.17 -214.01,-345.9z"/>
   <path class="fil0" d="M402.68 524.26l91.39 -118.49c133.53,61.49 241.83,236.64 230.96,386.61l-145.61 33.14c-30.94,-87.31 -105.29,-241.47 -179.62,-294.09l2.88 -7.16z"/>
  </g>
  <path class="fil1" d="M2018.88 763.5l189.31 0c-28.54,78.08 -72.83,138.53 -132.85,181.34 -60.03,42.82 -131.18,64.23 -213.45,64.23 -103.26,0 -191.2,-35.47 -263.83,-106.41 -72.62,-70.95 -108.93,-157.21 -108.93,-258.79 0,-103.26 35.47,-189.95 106.41,-260.05 70.94,-70.1 158.04,-105.15 261.31,-105.15 83.12,0 155.73,21.83 217.86,65.48 62.12,43.65 106.62,104.94 133.48,183.86l-189.31 0c-32.74,-63.8 -87.1,-95.7 -162.87,-95.7 -58.77,0 -106.83,19.31 -143.77,57.92 -37.15,38.62 -55.62,89.41 -55.62,152.38 0,61.29 19.31,112.08 58.13,152.38 38.62,40.29 87.1,60.45 145.04,60.45 66.53,0 119.63,-30.65 159.09,-91.93z"/>
  <path class="fil1" d="M3015.65 295.04l0 697.66 -153.64 0 0 -90.67c-32.74,37.78 -67.16,65.06 -103.26,81.85 -36.1,16.79 -78.92,25.19 -128.45,25.19 -102.42,0 -186.59,-34.22 -252.49,-102.63 -65.9,-68.42 -98.85,-155.11 -98.85,-260.05 0,-106.62 33.37,-194.56 100.12,-263.83 66.74,-69.26 151.32,-103.89 253.75,-103.89 52.05,0 95.92,8.4 131.6,25.18 35.68,16.79 68.22,44.92 97.6,84.37l0 -93.19 153.64 0zm-364.57 137.27c-60.66,0 -109.98,20.15 -147.76,60.45 -37.99,40.29 -56.88,92.77 -56.88,157.41 0,61.29 18.89,110.81 56.88,148.59 37.78,37.79 87.94,56.68 150.28,56.68 61.5,0 110.82,-19.32 147.76,-57.93 37.15,-38.62 55.62,-88.99 55.62,-151.11 0,-62.13 -19.31,-113.34 -58.13,-153.64 -38.62,-40.3 -87.94,-60.45 -147.76,-60.45z"/>
  <path class="fil1" d="M3178.59 992.69l0 -697.66 153.64 0 0 68.01c21.82,-31.9 43.65,-53.94 65.48,-66.11 21.82,-12.18 49.95,-18.26 84.37,-18.26l13.85 0 0 161.19c-99.91,0 -149.86,54.99 -149.86,164.97l0 387.86 -167.48 0z"/>
  <path class="fil2" d="M3559.95 652.68c0.63,-54.99 11.33,-105.15 32.32,-150.9 20.78,-45.76 48.9,-84.58 83.95,-116.49 35.26,-32.11 74.72,-56.46 118.79,-73.46 43.87,-17 88.57,-25.6 133.91,-25.6 125.93,3.14 216.19,53.52 270.75,151.32l0 -133.7 90.67 0 0 688.84 -90.67 0 0 -130.97c-25.81,46.38 -63.17,82.28 -112.29,107.88 -48.9,25.39 -104.31,38.2 -166.22,38.2 -47.23,-1.26 -92.35,-10.28 -135.59,-27.29 -43.23,-16.79 -81.85,-40.92 -116.06,-71.99 -34.01,-31.27 -60.87,-68.63 -80.39,-112.29 -19.52,-43.65 -29.17,-91.51 -29.17,-143.56zm95.71 -21.4c0,56.46 12.38,106.61 37.36,150.07 24.97,43.65 57.72,77.02 98.43,100.53 40.92,23.3 84.16,35.47 129.71,36.52 52.68,0 100.32,-12.6 142.72,-37.99 42.4,-25.4 75.56,-58.56 99.69,-99.69 24.14,-40.93 36.1,-83.74 36.1,-128.03 0,-48.69 -11.75,-93.82 -35.05,-134.96 -23.3,-41.14 -55.41,-74.09 -96.34,-98.85 -40.93,-24.76 -85.63,-38.2 -134.54,-40.72 -53.1,0 -100.74,13.22 -143.56,39.67 -42.61,26.44 -75.56,59.61 -99.27,99.27 -23.51,39.88 -35.26,77.87 -35.26,114.18z"/>
  <polygon id="_1" class="fil2" points="4551.33,992.69 4551.33,388.22 4406.51,388.22 4406.51,303.85 4551.33,303.85 4551.33,60.81 4644.52,60.81 4644.52,303.85 4804.25,303.85 4804.25,388.22 4644.52,388.22 4644.52,992.69 "/>
  <polygon id="_2" class="fil2" points="4920.83,992.69 4920.83,60.81 5014.02,60.81 5014.02,992.69 "/>
  <path id="_3" class="fil2" d="M5165.45 652.68c0.63,-54.99 11.33,-105.15 32.32,-150.9 20.78,-45.76 48.9,-84.58 83.95,-116.49 35.26,-32.11 74.72,-56.46 118.79,-73.46 43.87,-17 88.57,-25.6 133.91,-25.6 125.93,3.14 216.19,53.52 270.75,151.32l0 -133.7 90.67 0 0 688.84 -90.67 0 0 -130.97c-25.81,46.38 -63.17,82.28 -112.29,107.88 -48.9,25.39 -104.31,38.2 -166.22,38.2 -47.23,-1.26 -92.35,-10.28 -135.59,-27.29 -43.23,-16.79 -81.85,-40.92 -116.06,-71.99 -34.01,-31.27 -60.87,-68.63 -80.39,-112.29 -19.52,-43.65 -29.17,-91.51 -29.17,-143.56zm95.71 -21.4c0,56.46 12.38,106.61 37.36,150.07 24.97,43.65 57.72,77.02 98.43,100.53 40.92,23.3 84.16,35.47 129.71,36.52 52.68,0 100.32,-12.6 142.72,-37.99 42.4,-25.4 75.56,-58.56 99.69,-99.69 24.14,-40.93 36.1,-83.74 36.1,-128.03 0,-48.69 -11.75,-93.82 -35.05,-134.96 -23.3,-41.14 -55.41,-74.09 -96.34,-98.85 -40.93,-24.76 -85.63,-38.2 -134.54,-40.72 -53.1,0 -100.74,13.22 -143.56,39.67 -42.61,26.44 -75.56,59.61 -99.27,99.27 -23.51,39.88 -35.26,77.87 -35.26,114.18z"/>
  <path id="_4" class="fil2" d="M6046.02 505.35c-0.85,-6.72 -1.26,-15.96 -1.26,-27.5 0,-40.09 9.86,-74.3 29.81,-103.05 19.94,-28.76 44.91,-50.16 74.93,-64.44 30.01,-14.48 59.18,-21.62 87.73,-21.62 23.08,0 46.17,3.99 69.26,11.76 22.88,7.76 43.87,19.31 62.76,34.63 18.89,15.32 34.42,34.84 46.18,58.35 11.75,23.72 18.26,50.37 19.52,80.38l-94.45 0c-1.68,-33.16 -12.18,-57.3 -31.69,-72.62 -19.52,-15.32 -43.44,-23.09 -71.36,-23.09 -24.77,0 -47.86,8.19 -69.26,24.34 -21.2,16.17 -32.53,39.88 -34.01,71.16 0.21,0.84 1.47,6.08 3.57,15.53 2.1,9.65 3.57,15.74 4.2,18.68 6.29,22.67 27.91,41.77 64.65,57.09 36.94,15.33 74.09,29.81 111.45,43.87 37.36,14.06 69.05,34.84 94.87,61.91 25.82,27.29 38.62,66.11 38.62,116.7 0,8.61 -0.84,21.2 -2.72,37.78 -5.25,42.4 -19.1,77.45 -41.98,104.74 -22.88,27.49 -49.75,47.43 -80.8,59.6 -30.86,12.18 -61.29,18.26 -91.3,18.26 -41.56,0 -78.71,-9.44 -111.45,-28.54 -32.95,-19.1 -58.34,-45.13 -76.39,-78.29 -18.26,-32.95 -27.29,-69.47 -27.29,-109.77l93.4 -2.73c1.26,39.46 14.48,71.58 40.08,96.13 25.4,24.76 54.57,37.57 87.1,38.83 32.74,-2.93 60.66,-15.53 83.53,-37.99 23.09,-22.46 34.63,-49.54 34.63,-81.64 0,-28.13 -9.23,-53.94 -27.7,-77.03 -18.68,-22.88 -47.02,-39.25 -85.64,-48.9 -52.47,-14.07 -97.39,-34.01 -134.54,-59.4 -37.15,-25.4 -58.76,-62.97 -64.43,-113.13z"/>
 </g>
</svg>
